<?xml version="1.0" encoding="UTF-8"?>
<svg width="33px" height="33px" viewBox="0 0 33 33" version="1.1" xmlns="http://www.w3.org/2000/svg" xmlns:xlink="http://www.w3.org/1999/xlink">
    <!-- Generator: Sketch 49 (51002) - http://www.bohemiancoding.com/sketch -->
    <title>Group</title>
    <desc>Created with Sketch.</desc>
    <defs></defs>
    <g id="Page-1" stroke="none" stroke-width="1" fill="none" fill-rule="evenodd">
        <g id="Mobile" transform="translate(-144.000000, -15.000000)">
            <g id="Group" transform="translate(144.000000, 15.000000)">
                <rect id="Rectangle-2" fill="#202020" x="2" y="2" width="29" height="29"></rect>
                <rect id="Rectangle-2" stroke="#171717" x="0.5" y="0.5" width="32" height="32"></rect>
                <g id="logo" transform="translate(3.000000, 3.000000)" fill="#FFFFFF">
                    <rect id="Rectangle" x="12.326087" y="3.52173913" width="2.34782609" height="2.34782609"></rect>
                    <rect id="Rectangle" x="15.2608696" y="6.45652174" width="2.34782609" height="2.34782609"></rect>
                    <rect id="Rectangle" x="21.1304348" y="3.52173913" width="2.34782609" height="2.34782609"></rect>
                    <rect id="Rectangle" x="21.1304348" y="9.39130435" width="2.34782609" height="4.10869565"></rect>
                    <rect id="Rectangle" x="12.326087" y="9.39130435" width="2.34782609" height="4.10869565"></rect>
                    <rect id="Rectangle" x="12.326087" y="13.5" width="5.2826087" height="9.97826087"></rect>
                    <rect id="Rectangle-3" x="3.52173913" y="18.1956522" width="2.34782609" height="5.2826087"></rect>
                    <rect id="Rectangle-3" x="6.45652174" y="3.52173913" width="2.34782609" height="8.80434783"></rect>
                    <rect id="Rectangle-3" x="3.52173913" y="6.45652174" width="5.2826087" height="7.04347826"></rect>
                    <rect id="Rectangle-3" x="21.1304348" y="18.1956522" width="2.34782609" height="5.2826087"></rect>
                    <rect id="Rectangle-3" transform="translate(6.163043, 19.369565) rotate(-270.000000) translate(-6.163043, -19.369565) " x="4.98913043" y="16.7282609" width="2.34782609" height="5.2826087"></rect>
                    <rect id="Rectangle-3" transform="translate(13.500000, 13.500000) rotate(-270.000000) translate(-13.500000, -13.500000) " x="12.326087" y="3.55271368e-15" width="2.34782609" height="27"></rect>
                </g>
            </g>
        </g>
    </g>
</svg>